<svg xmlns="http://www.w3.org/2000/svg" width="184.479" height="95.758" viewBox="0 0 184.479 95.758">
  <g id="Group_46" data-name="Group 46" transform="translate(-191.3 -67.417)">
    <g id="Group_36" data-name="Group 36" transform="translate(266.48 117.452)">
      <path id="Path_172" data-name="Path 172" d="M268.26,118.106v12H265.72v-2.788a6.846,6.846,0,0,1-5.575,3.252c-2.815,0-5.437-1.64-5.437-4.618,0-2.9,2.514-4.455,5.082-6.04,2.1-1.339,4.264-2.678,5.11-4.838a2.408,2.408,0,0,0-1.776-.737c-2.459,0-3.743,2.842-6.2,2.842v-2.568a4.511,4.511,0,0,0,.848.109c2.022,0,3.525-.848,5.848-.848C266.1,113.87,268.26,115.018,268.26,118.106Zm-2.541-.739a3.591,3.591,0,0,0-.519-1.94v.027c-.9,2.1-2.6,3.389-4.181,4.618-2,1.5-3.772,2.869-3.772,5.548,0,2.733,1.667,4.1,3.607,4.1a5.733,5.733,0,0,0,4.865-3.2Z" transform="translate(-254.707 -108.827)" fill="#040505"/>
      <path id="Path_173" data-name="Path 173" d="M270.6,130.893V117.35H267.6V116.8H270.6c-3.389-3.087-2.706-7.186.656-7.186,2.1,0,3.443,2.377,5.711.519h.218v2.869H277c-2.678.245-3.743-2.9-5.848-2.9-2.4,0-1.476,3.963,1.94,6.694H276.7v.547h-3.553v13.543Z" transform="translate(-252.314 -109.617)" fill="#040505"/>
      <path id="Path_174" data-name="Path 174" d="M289.324,118.106v12h-2.542v-2.788a6.846,6.846,0,0,1-5.575,3.252c-2.815,0-5.437-1.64-5.437-4.618,0-2.9,2.514-4.455,5.083-6.04,2.1-1.339,4.263-2.678,5.11-4.838a2.412,2.412,0,0,0-1.776-.737c-2.46,0-3.744,2.842-6.2,2.842v-2.568a4.5,4.5,0,0,0,.847.109c2.023,0,3.525-.848,5.848-.848C287.164,113.87,289.324,115.018,289.324,118.106Zm-2.542-.739a3.591,3.591,0,0,0-.519-1.94v.027c-.9,2.1-2.6,3.389-4.181,4.618-2,1.5-3.772,2.869-3.772,5.548,0,2.733,1.667,4.1,3.608,4.1a5.733,5.733,0,0,0,4.864-3.2Z" transform="translate(-250.796 -108.827)" fill="#040505"/>
      <path id="Path_175" data-name="Path 175" d="M305.52,130.086h-2.541L301.039,118.5c-.382-2.35-1.612-3.306-3.087-3.306-1.914,0-4.236,1.64-5.766,3.77v11.123h-2.542v-15.8h2.542v3.853c1.64-2.377,4.645-4.181,7.159-4.181,1.968,0,3.663,1.119,4.127,3.934Z" transform="translate(-248.22 -108.81)" fill="#040505"/>
      <path id="Path_176" data-name="Path 176" d="M303.7,121.85c0-5.328,3.99-7.98,8.744-7.98,4.345,0,6.422,2.132,6.422,4.4,0,2.951-2.733,4.974-5.93,4.755-2.733-.164-4.072.027-4.838,1.859l-.519-1.039c.574-1.667,2.6-1.449,5.028-1.284,3.007.218,3.717-2.268,3.717-4.291,0-1.858-.793-3.853-3.99-3.853-3.443,0-5.9,3.143-6.013,7.488-.082,4.7,2.651,8.035,6.2,8.035,2.159,0,4.645-1.75,5.411-6.013l1.448,1.585c-.765,3.142-3.908,4.945-7.159,4.945A8.487,8.487,0,0,1,303.7,121.85Z" transform="translate(-245.61 -108.827)" fill="#040505"/>
      <path id="Path_177" data-name="Path 177" d="M317.84,121.85c0-5.328,3.99-7.98,8.744-7.98,4.345,0,6.422,2.132,6.422,4.4,0,2.951-2.732,4.974-5.93,4.755-2.733-.164-4.072.027-4.838,1.859l-.518-1.039c.574-1.667,2.6-1.449,5.028-1.284,3.006.218,3.716-2.268,3.716-4.291,0-1.858-.792-3.853-3.99-3.853-3.443,0-5.9,3.143-6.013,7.488-.082,4.7,2.651,8.035,6.2,8.035,2.159,0,4.645-1.75,5.411-6.013l1.448,1.585c-.765,3.142-3.907,4.945-7.159,4.945A8.487,8.487,0,0,1,317.84,121.85Z" transform="translate(-242.985 -108.827)" fill="#040505"/>
      <path id="Path_178" data-name="Path 178" d="M349.376,130.086h-2.542l-1.94-11.588c-.383-2.35-1.613-3.306-3.087-3.306-1.914,0-4.236,1.64-5.767,3.77v11.123H333.5v-15.8h2.541v3.853c1.64-2.377,4.647-4.181,7.16-4.181,1.968,0,3.661,1.119,4.126,3.934Z" transform="translate(-240.078 -108.81)" fill="#040505"/>
    </g>
    <g id="Group_45" data-name="Group 45" transform="translate(191.3 67.417)">
      <g id="Group_41" data-name="Group 41" transform="translate(71.898 25.202)">
        <g id="Group_40" data-name="Group 40">
          <g id="Group_39" data-name="Group 39">
            <g id="Group_38" data-name="Group 38">
              <path id="Path_179" data-name="Path 179" d="M296.11,107.074a1.2,1.2,0,0,1-1.234,1.181,1.169,1.169,0,0,1-1.234-1.181,1.152,1.152,0,0,1,1.234-1.158A1.18,1.18,0,0,1,296.11,107.074Z" transform="translate(-244.196 -85.471)" fill="#040505"/>
              <path id="Path_180" data-name="Path 180" d="M299.049,107.074a1.235,1.235,0,0,1-2.469,0,1.237,1.237,0,0,1,2.469,0Z" transform="translate(-243.65 -85.471)" fill="#040505"/>
              <g id="Group_37" data-name="Group 37">
                <path id="Path_181" data-name="Path 181" d="M263.044,94.239a1.158,1.158,0,0,1-2.314,0,1.158,1.158,0,0,1,2.314,0Z" transform="translate(-250.307 -87.845)" fill="#040505"/>
                <path id="Path_182" data-name="Path 182" d="M306.961,91.993a1.125,1.125,0,0,1-2.248,0,1.125,1.125,0,0,1,2.248,0Z" transform="translate(-242.14 -88.258)" fill="#040505"/>
                <path id="Path_183" data-name="Path 183" d="M334.824,89.78a1.147,1.147,0,1,1-1.157-1.107A1.125,1.125,0,0,1,334.824,89.78Z" transform="translate(-236.975 -88.673)" fill="#040505"/>
                <path id="Path_184" data-name="Path 184" d="M272.541,104.408h3.741v-1.071h-1.157l-3.588.079v.979Z" transform="translate(-248.3 -85.95)" fill="#040505"/>
                <path id="Path_185" data-name="Path 185" d="M275.08,103.337h4.745v1.071H275.08Z" transform="translate(-247.642 -85.95)" fill="#040505"/>
                <path id="Path_186" data-name="Path 186" d="M278.624,103.337h4.745v1.071h-4.745Z" transform="translate(-246.984 -85.95)" fill="#040505"/>
                <path id="Path_187" data-name="Path 187" d="M282.167,103.337h11.189v1.071H282.167Z" transform="translate(-246.326 -85.95)" fill="#040505"/>
                <path id="Path_188" data-name="Path 188" d="M341.775,107.222V88.7h2.541v18.526Z" transform="translate(-235.259 -88.669)" fill="#040505"/>
                <path id="Path_189" data-name="Path 189" d="M258.11,96.06l-.026.241-.024.222a2.425,2.425,0,0,0-.42-.037,3.7,3.7,0,0,0-2.107.762c-1.133.771-2.143,1.851-3.595,1.851V96.737a4.088,4.088,0,0,0,.78.1,7.792,7.792,0,0,0,1.356-.127c.933-.165,1.819-.442,2.861-.576a9.322,9.322,0,0,1,1.157-.075Z" transform="translate(-251.939 -87.301)" fill="#040505"/>
                <path id="Path_190" data-name="Path 190" d="M276.746,104.929l-1.571.036-.626.014c-1.882,0-2.945-2.428-2.945-4.1V95.008L269.214,95c0,.2-.008,1.5-.008,1.807v5.039a12.43,12.43,0,0,1-.567,4.009,4.971,4.971,0,0,1-4.994,3.691c-2.753,0-5.563-1.671-5.563-7.7v-5.56l-1.249.052c-1.134.146-2.1.447-3.112.626l-1.779,2.4c.8,0,3.067-1.648,3.364-1.818.27-.154.377.337.377.641v3.654c0,4.2,2.7,8.585,7.962,8.585,3.88,0,6.326-2.229,7.5-5.774v0c.122-.365.229-.746.323-1.139a2.714,2.714,0,0,0,.2.383,4.372,4.372,0,0,0,3.425,2.045h.148l.938.012.567-.235,2.017-.836Z" transform="translate(-251.938 -87.498)" fill="#040505"/>
                <path id="Path_191" data-name="Path 191" d="M300.846,104.885c-2.115,0-3.384-2.632-3.384-4.456V95l-.047.008L294.773,95s.03,1.739.03,1.882v5.313c0,1.679-.665,2.69-2.267,2.69h-1.391v1.071h1.934c1.876,0,3.749-.521,4.474-2.256a4.646,4.646,0,0,0,3.779,2.256h1.207v-1.071Z" transform="translate(-244.66 -87.498)" fill="#040505"/>
                <path id="Path_192" data-name="Path 192" d="M305.321,96.669a3.213,3.213,0,0,1,.014.357v5.081c0,1.678-.666,2.75-2.267,2.778H300.3v1.071h3.284c2.571,0,4.382-1.33,4.382-3.761V95l-2.642.479Z" transform="translate(-242.96 -87.498)" fill="#040505"/>
                <path id="Path_193" data-name="Path 193" d="M335.349,106.409a7.523,7.523,0,0,1-1.018.03l-.051-.957c.14.006,6.424-.429,4.942-6.649-.792-3.323-2.67-5.883-5.534-5.606-2.617.254-3.108,1.949-2.962,3.47.161,1.655.914,3.367,3.384,3.218,1.994-.148,3.615-.666,4.216.652l-.343.893c-.771-1.438-1.86-1.265-4.106-1.139-2.625.166-5-1-5.23-3.421-.181-1.857,1.349-3.768,4.906-4.111,4.049-.392,7.332,1.569,7.742,5.8C341.761,103.372,338.748,106.08,335.349,106.409Z" transform="translate(-237.699 -87.918)" fill="#040505"/>
                <path id="Path_194" data-name="Path 194" d="M307.176,97.055l-2.628-.029L304.534,95h2.672Z" transform="translate(-242.173 -87.498)" fill="#040505"/>
              </g>
            </g>
          </g>
        </g>
      </g>
      <path id="Path_195" data-name="Path 195" d="M337.911,106.219l-23.836-.164c-1.269-.087-1.994-.9-1.994-2.431V88.695l-.084,0-2.54,0v15.423a3.072,3.072,0,0,0,2.54,2.8,7.821,7.821,0,0,0,1.9.205l24.069.064Z" transform="translate(-169.362 -63.467)" fill="#040505"/>
      <g id="Group_44" data-name="Group 44">
        <g id="Group_42" data-name="Group 42" transform="translate(19.04 9.388)" opacity="0.07">
          <path id="Path_196" data-name="Path 196" d="M247.7,101.171v33.307c0,.319-.008.64-.02.963,0,.164-.012.326-.024.493a25.97,25.97,0,0,1-.326,2.914l-.076.41c-.135.728-.3,1.448-.493,2.139l-.142.49c-.2.684-.442,1.367-.7,2.024l-.152.37c-.254.624-.544,1.26-.867,1.892-.079.152-.155.3-.238.458a24.549,24.549,0,0,1-1.3,2.163l-.21.314a26.213,26.213,0,0,1-1.826,2.35c-.107.123-.218.247-.333.375a25.947,25.947,0,0,1-18.575,8.469h-.044c-.179-.72-.522-2.147-.625-2.807-.27-1.667-.274-1.961.147-2.9l.024-.047c.06-.14.132-.291.216-.458.1-.215.215-.449.338-.72,3.678-7.977,3.65-13.353,3.622-18.563-.008-1.71-.015-3.479.1-5.332a50.454,50.454,0,0,1,4.612-12.451c.787-1.6,1.6-3.253,2.335-5.083a15.138,15.138,0,0,0,1.961-6.5,6.745,6.745,0,0,0-.04-.745,3.769,3.769,0,0,0-1.336-2.811,3.973,3.973,0,0,0-3.221-.445c-2.953.576-5.94,3.149-7.993,6.895-.008.02-.02.04-.027.056a82.081,82.081,0,0,1-6.227,11.616c-.04-.012-.081-.028-.12-.044-3.973-1.277-6.267-2.811-6.649-4.446-.321-1.546-.553-3.029-.771-4.445a50.131,50.131,0,0,0-1.162-5.914c-.056-.194-.1-.35-.147-.477-.02-.071-.044-.147-.059-.2.036-.064.095-.155.147-.243s.132-.215.218-.362c.49-.835.931-1.571,1.333-2.235a47.271,47.271,0,0,0,3.277-6.112c.4-.338.831-.695,1.281-1.069,2.294-1.909,4.9-4.068,6.251-6.192a9.936,9.936,0,0,0,.617-1.137c6.283-2.716,7.161-6.148,7.209-8.859v-.028a2.429,2.429,0,0,0-.914-2.147,2.722,2.722,0,0,0-2.581-.088c-1.829.7-3.357,1.348-4.975,2.029-1.077.453-2.191.919-3.479,1.443a.641.641,0,0,0-.108.052c-.441.267-.875.521-1.3.775l.35-.446c.556-.728,1.129-1.471,1.65-2.2v0c.341-.481.664-.954.946-1.424.107-.174.206-.353.3-.532.049-.012.1-.02.147-.028a26.373,26.373,0,0,1,4.14-.333A25.837,25.837,0,0,1,247.7,101.171Z" transform="translate(-207.359 -75.335)" fill="#040505"/>
        </g>
        <g id="Group_43" data-name="Group 43">
          <path id="Path_197" data-name="Path 197" d="M228.217,78.657l0,.079c0,.036.008.071.008.1A1.682,1.682,0,0,0,228.217,78.657Zm-.314,47.222c-.012.036-.024.075-.032.111.044-.152.091-.3.139-.446C227.97,125.656,227.938,125.768,227.9,125.879Zm-.442,1.5c-.039.143-.075.287-.115.434q.126-.459.25-.907C227.553,127.064,227.5,127.223,227.46,127.381Zm-.162.609c-.032.123-.064.247-.091.373.039-.167.083-.331.127-.5C227.321,127.907,227.31,127.951,227.3,127.991Zm-1.428-.892c-.04-.068-.079-.135-.12-.206a.547.547,0,0,0-.044-.068c.1.159.187.321.279.485C225.95,127.243,225.909,127.172,225.87,127.1Zm-.262-.445c-.044-.072-.092-.147-.14-.219.079.127.164.258.238.39C225.676,126.77,225.644,126.71,225.608,126.655Zm-1.094-1.527a.732.732,0,0,0-.079-.091c.084.1.164.2.243.3C224.625,125.263,224.574,125.2,224.514,125.127Zm-.223,22.809,0-.015c0,.056.008.111.015.164C224.3,148.032,224.3,147.985,224.291,147.936Zm-.047-23.123-.132-.143c.088.1.172.191.255.287C224.328,124.908,224.284,124.861,224.243,124.813Zm-.35,20.538c-.02-.107-.044-.21-.068-.318.047.219.091.441.135.66C223.941,145.579,223.917,145.463,223.894,145.352Zm-.159-.732c-.028-.123-.059-.242-.088-.365-.059-.243-.123-.485-.191-.728q.2.727.358,1.456C223.79,144.859,223.762,144.74,223.735,144.62Zm-.422-20.758c-.135-.123-.27-.242-.409-.353.279.23.544.477.8.732C223.576,124.114,223.444,123.986,223.313,123.862Zm-.059,18.948c-.071-.242-.151-.48-.226-.72.1.322.2.649.3.975C223.3,142.978,223.277,142.895,223.253,142.811Zm-.286-.906c-.017-.044-.032-.091-.049-.135l.084.25C222.991,141.979,222.979,141.944,222.968,141.9Zm-.272-18.571-.215-.167c.14.108.275.215.406.326C222.824,123.441,222.76,123.386,222.7,123.334Zm-.289,16.992c-.044-.115-.091-.23-.14-.346.091.231.179.462.267.7C222.493,140.557,222.451,140.445,222.407,140.325ZM222.267,123c-.019-.012-.039-.027-.059-.043a.063.063,0,0,1-.015-.012c-.028-.02-.06-.044-.092-.064l.382.286Zm-.561,15.6-.151-.341c-.047-.111-.1-.223-.152-.334.152.334.3.676.446,1.017C221.806,138.83,221.758,138.715,221.706,138.6Zm-.186-16.117c-.056-.032-.111-.068-.167-.1l.2.127A.172.172,0,0,0,221.52,122.487Zm-.417,14.772c-.052-.111-.1-.222-.16-.33.155.33.311.664.461,1C221.309,137.705,221.206,137.482,221.1,137.259ZM220.88,122.1c-.084-.043-.164-.087-.247-.135.135.076.27.152.4.228C220.986,122.161,220.931,122.129,220.88,122.1Zm-.414,13.847c-.012-.028-.027-.052-.04-.079-.063-.128-.13-.255-.194-.382-.047-.1-.095-.191-.147-.283l-.083-.154q.315.6.624,1.228C220.574,136.166,220.522,136.055,220.466,135.948Zm-.593-14.364c-.083-.039-.171-.079-.258-.119l-.247-.108.247.111c.171.076.338.155.505.235C220.04,121.663,219.957,121.624,219.873,121.584Zm-2.115-44.855h0c.02-.032.04-.064.06-.091C217.8,76.669,217.781,76.7,217.758,76.728Zm.326-.517c-.012.02-.024.039-.036.064a.62.62,0,0,0,.039-.064c.032-.052.064-.108.092-.159A1.452,1.452,0,0,1,218.084,76.211Zm.187-.323h0a.421.421,0,0,0,.02-.039C218.287,75.862,218.278,75.877,218.271,75.889ZM214.29,72.2l.235-.282c.052-.06.1-.123.152-.191C214.545,71.888,214.413,72.044,214.29,72.2Zm-7.67,8.386-.155.27h0c.12-.215.243-.426.363-.632C206.758,80.343,206.691,80.462,206.62,80.585Zm1.026-2.453a1.053,1.053,0,0,1-.008.119,1.271,1.271,0,0,0,.012-.135Zm0-1.5v.032l0,0A.125.125,0,0,0,207.642,76.632Zm-.135-.973c.015.071.027.147.039.226l0,.008C207.538,75.814,207.525,75.734,207.506,75.659Zm-7.778,15.818c-.081.06-.164.12-.247.179.079-.059.162-.115.247-.174l.027-.024Zm-.978.708a.229.229,0,0,0-.037.032.418.418,0,0,1,.037-.027c.079-.06.159-.12.242-.179C198.909,92.066,198.83,92.125,198.75,92.185Zm-.081.072c-.015.024-.036.047-.051.071.02-.027.039-.052.059-.076Zm-.35-4.6c-.056.132-.111.258-.167.387.056-.128.116-.255.172-.387.039-.095.083-.194.127-.29C198.4,87.465,198.364,87.561,198.32,87.656Zm-1.352,3.125c-.036.084-.068.167-.1.247.036-.079.071-.162.107-.247.06-.139.116-.274.172-.409C197.083,90.507,197.027,90.642,196.968,90.781Zm22.055-8.06c-.025.02-.052.04-.076.056.047-.032.1-.071.155-.111C219.074,82.685,219.047,82.705,219.023,82.721Zm-.211.147-.4.275-.056.044c.152-.108.3-.211.454-.314l.007-.008Zm-2.573,45.664c-.059-.1-.12-.2-.179-.29.056.095.115.191.174.29.076.119.148.242.228.365C216.386,128.773,216.31,128.655,216.239,128.532Zm-3.034-45.5-.028.056.032-.052c.036-.063.072-.123.108-.186C213.276,82.915,213.24,82.976,213.2,83.035Zm-.76.49c-.194.115-.385.23-.576.341l.576-.338.732-.434v0Zm.358,36.214c0,.008.012.012.02.017l.012,0Zm-2.544-2.35c.024.1.043.2.068.3l.142.585C210.4,117.981,210.329,117.687,210.258,117.389Zm-.2-.907a.021.021,0,0,0-.007-.015s0,.008,0,.015c.064.307.132.609.2.907C210.194,117.091,210.127,116.789,210.063,116.482Zm-.5-27.1a.647.647,0,0,1-.06.044c.04-.028.084-.056.128-.084C209.606,89.353,209.586,89.37,209.562,89.382Zm-4.331-4.227c.179-.3.355-.593.529-.887s.343-.593.513-.883C205.935,83.966,205.586,84.559,205.231,85.155ZM204.325,95h0c.071-.071.139-.143.211-.218C204.468,94.861,204.4,94.933,204.325,95Zm-1.563-7.917c-.135.218-.27.433-.41.644.14-.215.275-.429.414-.644Zm-5.225,25.991c-.068.373-.135.739-.211,1.1.083-.4.162-.807.238-1.225A1.232,1.232,0,0,0,197.537,113.079Z" transform="translate(-190.267 -66.617)" fill="#040505"/>
          <path id="Path_198" data-name="Path 198" d="M244.1,83.386a27.06,27.06,0,0,0-19.251-7.972,27.8,27.8,0,0,0-3.635.242,9.845,9.845,0,0,0-.242-6.876.329.329,0,0,0-.024-.051,2,2,0,0,0-1.611-1.3c-1.387-.123-2.588,1.519-3.384,2.6-.071.1-.139.19-.2.27-1.365,1.813-2.59,3.176-3.663,4.386-.78.87-1.492,1.669-2.1,2.47a5.638,5.638,0,0,0-1.714-3.961,2.309,2.309,0,0,0-1.965-.509,2.587,2.587,0,0,0-1.662,1.539c-.453.931-1,1.936-1.575,3a53.289,53.289,0,0,0-2.712,5.464c-.848,2.092-1.547,3.686-2.227,5.229-.458,1.046-.892,2.029-1.36,3.149-.446,1.062-.732,1.758-.919,2.358-.079.243-.143.473-.194.7a18.406,18.406,0,0,0-.29,2.894l-.012.251c-.017.279-.037.585-.056.914-.247,3.571-.887,10.109-1.36,13.855-.012.12-.028.238-.044.355-.74,1.8-1.451,3.578-1.941,5.161l0,.008a9.192,9.192,0,0,0-.581,4.147c0,.019.012.039.017.059.838,2.843,1.7,5.543,2.553,8.151l.72,2.2c.33,1.01.664,2.024,1,3.058.063.2.127.394.194.593.688,2.132,1.38,4.327,2.052,6.612.676,3.929,2.609,15.628,2.609,15.628l1.152.7.4.242-.044-.23a.209.209,0,0,0-.008-.047c-.012-.064-.024-.135-.039-.216,0-.024-.008-.051-.017-.079-.052-.3-.127-.7-.211-1.164-.007-.049-.019-.091-.027-.14l-.024-.142c-.024-.116-.044-.235-.064-.355a1.469,1.469,0,0,1-.027-.151c-.008-.052-.02-.1-.028-.155s-.02-.108-.027-.159c-.024-.108-.04-.211-.06-.319-.012-.051-.019-.107-.027-.159-.017-.079-.032-.159-.044-.238-.008-.032-.012-.068-.02-.1-.012-.071-.027-.147-.039-.218,0-.032-.012-.06-.017-.092-.012-.051-.02-.107-.027-.159-.024-.107-.04-.215-.06-.321-.007-.052-.019-.108-.027-.159-.04-.211-.076-.414-.111-.613l-.036-.191c-.017-.083-.032-.167-.044-.247-.027-.143-.052-.279-.071-.405-.012-.052-.02-.1-.028-.147-.015-.076-.027-.147-.039-.219s-.028-.151-.04-.218l0-.012c-.008-.056-.017-.1-.024-.155l0-.015c-.007-.04-.015-.076-.02-.111,0-.008,0-.012,0-.02-.008-.047-.015-.091-.024-.132-.012-.071-.024-.135-.032-.186,0-.017,0-.032-.008-.049a.482.482,0,0,0-.012-.071.1.1,0,0,1,0-.027q-.269-1.976-.588-4.136l-.108-.728c-.076-.5-.155-1-.235-1.515-.032-.2-.063-.4-.095-.6-.012-.091-.028-.179-.044-.27v0q-.162-1.008-.338-2.052h-.024v-.139a.488.488,0,0,0-.02-.068c-.028-.091-.056-.187-.084-.279s-.051-.187-.083-.279l-.155-.524c-.119-.4-.238-.8-.362-1.194l0-.012c-.184-.6-.366-1.2-.554-1.786-.055-.178-.115-.362-.171-.541-.079-.242-.155-.48-.23-.723,0-.015-.012-.032-.017-.047-.254-.8-.505-1.579-.755-2.343-.088-.274-.179-.544-.267-.815-.115-.358-.23-.713-.345-1.058-.017-.052-.032-.1-.049-.147-.063-.2-.127-.394-.191-.589l-.031-.095c-.02-.06-.04-.12-.06-.184l-.059-.186c-.068-.2-.132-.39-.194-.585-.056-.179-.116-.358-.175-.537s-.123-.382-.187-.573c-.019-.068-.044-.135-.068-.206-.015-.052-.036-.108-.051-.16-.056-.162-.108-.33-.164-.492-.012-.044-.027-.088-.039-.132s-.032-.088-.044-.132c-.429-1.328-.863-2.676-1.289-4.06-.179-.573-.353-1.149-.529-1.733-.123-.4-.238-.8-.358-1.206a2.838,2.838,0,0,1-.039-.656c0-.052.007-.108.012-.162a4.388,4.388,0,0,1,.047-.446c.008-.047.015-.091.024-.14.008-.068.024-.139.036-.21s.028-.14.044-.211.032-.147.047-.223.037-.151.056-.23c.017-.064.032-.132.049-.2.032-.119.063-.238.1-.362a.513.513,0,0,1,.027-.091l.024-.091c.008-.032.02-.064.028-.1.019-.071.039-.139.063-.21s.044-.143.068-.216c.068-.218.14-.436.219-.664.024-.075.051-.151.075-.226.056-.151.108-.3.164-.458.111-.306.226-.62.346-.934.032-.075.059-.154.091-.235a.129.129,0,0,1,.015-.039.138.138,0,0,1,.017-.04c.032-.087.063-.171.1-.258.047-.127.095-.25.147-.373.039-.107.083-.215.127-.318.015-.044.032-.088.052-.135.007-.017.012-.032.019-.052.02-.044.04-.088.056-.13s.024-.06.036-.092c.287-.708.577-1.407.856-2.075l.007-.02.017-.044c.056-.135.115-.27.171-.405.72-1.742,1.387-3.384,1.765-4.632.068-.219.123-.422.171-.613.008-.036.017-.071.028-.107.091-.363.186-.724.274-1.086.076-.3.152-.6.223-.9.123-.485.238-.97.353-1.455.052-.219.1-.438.155-.66v0c.04-.166.079-.333.116-.5.047-.194.091-.394.139-.588.015-.076.036-.152.052-.226.063-.27.122-.541.186-.812.14-.6.275-1.208.41-1.8.083-.378.166-.752.254-1.125l.036-.155.012-.04c.008-.031.017-.063.025-.1.024-.1.051-.2.079-.3s.056-.184.083-.279.059-.2.091-.29c.032-.115.068-.231.108-.346.008-.036.02-.071.032-.107.019-.064.039-.132.063-.2s.052-.159.076-.243c.036-.115.071-.23.1-.345.079-.267.147-.522.2-.768l.017-.051.047-.037c.1-.075.211-.154.323-.23s.21-.159.318-.235c.162-.115.323-.23.485-.341s.33-.231.493-.343l.33-.226c.2-.139.4-.27.6-.406s.406-.267.609-.4c.119-.079.242-.159.365-.238l.132-.083c.815-.53,1.658-1.062,2.549-1.607.254-.16.512-.314.775-.474.4-.245.806-.492,1.228-.743.079-.051.162-.1.247-.151.323-.191.652-.39.986-.588l2.012-1.194c.235-.135.468-.274.7-.417l.983-.585c.282-.162.573-.334.87-.512.608-.363,1.253-.745,1.929-1.145.1-.056.194-.116.294-.172.223-.135.449-.27.684-.409.115-.068.23-.139.346-.206s.238-.14.358-.211.234-.143.353-.215.243-.143.366-.219l.019-.008c.43-.174.843-.345,1.241-.509.262-.111.524-.218.779-.321.223-.092.441-.187.657-.279.154-.064.306-.128.461-.191l.3-.127c1-.419,1.965-.828,2.995-1.241.1-.044.2-.083.306-.123s.211-.083.314-.127c.318-.123.64-.251.97-.382l.339-.132c.063-.024.135-.047.215-.071.027-.008.051-.017.079-.024h.012a.756.756,0,0,1,.1-.028,1.5,1.5,0,0,1,.226-.044.711.711,0,0,1,.088-.007.034.034,0,0,1,.019,0h.028a1.129,1.129,0,0,1,.155,0,.3.3,0,0,1,.056,0,.606.606,0,0,1,.23.06c.024.012.044.024.064.036a.27.27,0,0,1,.039.032l.008.007.024.024a.567.567,0,0,1,.056.076l0,0,.008.012c.008.013.012.025.02.037l.024.047c.02.044.036.095.052.143a.7.7,0,0,1,.019.083.512.512,0,0,1,.017.071c0,.025.012.049.015.072l0,.039c0,.032.007.064.012.092a1.682,1.682,0,0,1,.012.183c0,.027,0,.056,0,.079,0,.068,0,.135-.008.206s0,.135-.007.207-.008.139-.017.206-.007.123-.015.183c-.008.084-.017.167-.032.247s-.015.14-.027.207-.025.142-.04.215c-.028.143-.059.29-.1.433-.02.072-.039.147-.064.219a2.224,2.224,0,0,1-.071.218c-.024.072-.052.143-.079.219a4.461,4.461,0,0,1-.194.441c-.037.079-.079.159-.123.235s-.076.139-.12.211-.088.147-.139.223c-.02.036-.049.071-.072.11-.1.147-.21.3-.333.446-.028.036-.06.071-.092.111l-.095.108a1.47,1.47,0,0,1-.1.11c-.1.111-.206.223-.323.334l-.234.223c-.04.036-.084.071-.123.107a1.673,1.673,0,0,1-.132.111,1.106,1.106,0,0,1-.132.111c-.091.076-.191.152-.294.231l-.174.127c-.06.044-.12.088-.184.132a14.552,14.552,0,0,1-1.7,1.022l-.3.155.072-.326a10.766,10.766,0,0,0,.194-1.157c.132-1.218.155-2.673-.819-3.146-.926-.454-2.171.461-3.169,1.2l-.083.068c-.056.04-.108.079-.155.111a.251.251,0,0,1-.032.024c-.032.02-.059.04-.088.06l-.008,0-.007.008c-.152.1-.3.206-.454.314-1.058.739-2.115,1.519-3.058,2.215-.831.612-1.669,1.232-2.524,1.841q-.638.452-1.285.894c-.433.294-.867.576-1.3.851l-.258.159-.3.194c-.044.028-.088.056-.128.084a4.2,4.2,0,0,0-.417.3c-.032.024-.059.051-.088.075s-.071.064-.1.1-.051.047-.075.076l-.049.047a.5.5,0,0,1-.047.051c-.068.072-.139.155-.218.251-.025.027-.049.056-.076.088s-.04.051-.064.079c-.068.083-.139.174-.223.277l-.242.3c-.076.088-.147.175-.219.258-.254.311-.509.608-.764.9-.162.187-.326.37-.489.549-.323.355-.64.7-.958,1.034-.092.1-.187.194-.279.294-.147.155-.294.307-.438.458-.071.076-.143.151-.215.223s-.14.147-.211.218h0l-.02.02v0c-.208.207-.41.422-.613.637l-.107.115c-.052.049-.1.1-.152.152s-.1.111-.154.162c-.363.382-.728.775-1.1,1.186-.1.107-.2.218-.3.33-.262.3-.524.6-.787.914-.115.132-.226.272-.341.405-.318.39-.557.677-.732.927a1.09,1.09,0,0,0-.084.123,1.206,1.206,0,0,0-.075.12.3.3,0,0,0-.049.075.578.578,0,0,0-.044.076l-.039.076c-.008.012-.012.027-.02.039s-.012.024-.015.036c-.02.04-.036.081-.052.12s-.039.1-.056.143a1.094,1.094,0,0,0-.039.115l-.037.123c-.019.064-.036.127-.051.194-.059.24-.115.522-.183.88-.008.051-.017.1-.028.154l0,.032,0,.008,0,.032c-.039.21-.079.426-.115.64-.024.127-.044.254-.068.382-.024.151-.052.3-.076.453,0,.036-.012.068-.015.1-.092.573-.184,1.157-.27,1.745-.049.343-.1.681-.148,1.022s-.095.684-.147,1.022c-.051.362-.1.723-.154,1.09-.025.183-.052.362-.079.545-.04.27-.081.544-.123.815-.02.139-.044.279-.064.417l-.059.394c-.028.184-.06.362-.088.537-.017.108-.032.215-.052.323,0,.039-.012.075-.015.111s-.012.068-.017.1c-.019.111-.039.223-.059.331-.039.242-.083.485-.123.723-.076.417-.155.823-.238,1.225-.012.072-.028.147-.044.215-.008.052-.02.1-.028.147-.051.24-.1.473-.159.708-.024.111-.051.223-.079.334s-.056.226-.083.338a.657.657,0,0,0-.017.2.053.053,0,0,0,0,.027v0a.058.058,0,0,0,0,.024.537.537,0,0,0,.047.159c.008.012.012.024.02.036l.012.02a.245.245,0,0,1,.024.039l.008.013a1.148,1.148,0,0,0,.079.091l0,0a.067.067,0,0,0,.017.012c0,.008.012.012.02.017l.047.036c.012.007.024.015.039.024a.213.213,0,0,0,.04.02l.008,0c.015.008.031.012.047.02s.036.012.052.015a.687.687,0,0,0,.154.02c.024,0,.044,0,.064,0l.064-.012c.031,0,.063-.017.095-.025l.012-.007c.02-.008.04-.02.064-.028l.012-.012.012,0c.012-.008.02-.017.027-.02a.585.585,0,0,0,.072-.052l.012-.012.024-.024a.311.311,0,0,0,.032-.039l.02-.02a.7.7,0,0,0,.1-.219q.149-.6.282-1.228c.02-.083.036-.167.056-.25.027-.135.056-.275.083-.414a.639.639,0,0,0,.02-.1c.04-.194.079-.394.115-.593.044-.222.084-.449.123-.676s.084-.468.123-.708l.06-.37c.047-.282.091-.564.139-.847.04-.255.079-.509.115-.764q.126-.816.238-1.627c.044-.3.088-.6.128-.9l.012-.056c.267-1.865.517-3.631.823-5.261l.008-.059a3.931,3.931,0,0,1,1.257-2.652c.119-.148.235-.287.353-.43.1-.119.2-.238.306-.358q.74-.852,1.471-1.626c.116-.123.235-.247.35-.37s.231-.247.351-.37c.222-.231.441-.461.659-.688l.024-.024c1.253-1.3,2.554-2.649,3.87-4.3l.119-.143c.017-.024.037-.047.052-.068l.1-.123a.557.557,0,0,0,.044-.051c.024-.028.044-.056.063-.079.1-.12.191-.215.275-.3l.012-.007a2.262,2.262,0,0,1,.314-.247c.024-.017.047-.032.071-.052a.411.411,0,0,1,.052-.032c.032-.024.068-.043.1-.068l.008,0c.019-.012.039-.024.059-.039.04-.025.083-.052.132-.081a.1.1,0,0,1,.036-.024.236.236,0,0,1,.036-.027l.262-.159c.108-.072.219-.14.326-.211s.216-.139.322-.211a.069.069,0,0,0,.028-.02c.095-.059.191-.123.286-.186s.187-.123.282-.191c.04-.024.076-.052.115-.079.211-.143.419-.282.625-.426s.434-.306.652-.458l.644-.465c.322-.231.64-.466.959-.7.159-.115.318-.235.477-.35.079-.06.155-.12.235-.175l.235-.174.1-.072c.453-.338.919-.679,1.388-1.022q.231-.167.465-.333.334-.245.668-.486c.287-.2.569-.4.851-.592l.044-.032a.37.37,0,0,0,.047-.032.833.833,0,0,0,.1-.071c.068-.049.142-.1.223-.16l.024-.019a6.963,6.963,0,0,1,1.733-1.042l.127-.028.052.123a.2.2,0,0,0,.008.025.1.1,0,0,1,.007.027.252.252,0,0,1,.02.068,2.244,2.244,0,0,1,.052.29,1.084,1.084,0,0,1,.007.111.251.251,0,0,1,0,.059c0,.052,0,.111.007.171v.2c0,.064,0,.132-.007.2,0,.135-.017.282-.032.446,0,.056-.012.111-.017.167-.019.186-.047.373-.079.564-.024.143-.051.29-.083.433-.036.167-.079.331-.127.493-.024.088-.049.175-.076.263s-.047.147-.076.222l-.083.24c-.06.155-.123.309-.191.465s-.14.3-.215.449c-.056.1-.111.206-.172.311-.007.012-.015.027-.024.039-.056.1-.115.2-.174.29s-.1.164-.159.243c-.04.056-.079.115-.12.171s-.1.132-.151.2c-.123.164-.255.331-.4.5-.079.091-.155.179-.235.274-.056.064-.115.132-.174.194s-.108.12-.164.175c-.115.123-.235.25-.358.378l-.111.111-.191.191a.148.148,0,0,0-.024.024c-.007.007-.015.012-.024.02-.079.079-.162.159-.242.238-.74.708-1.544,1.411-2.331,2.075-.107.092-.215.184-.326.275-.326.274-.644.541-.95.8-.1.079-.2.162-.307.247a.542.542,0,0,1-.051.043c-.059.052-.115.1-.175.148s-.123.1-.183.154-.123.1-.183.152c-.123.1-.243.2-.362.306-.06.052-.12.1-.179.151a.639.639,0,0,0-.1.108.472.472,0,0,0-.032.044l-.007.015a.249.249,0,0,0-.032.064,45.536,45.536,0,0,1-3.261,6.107c-.155.255-.314.518-.478.792q-.16.274-.334.561c-.171.286-.345.585-.529.894-.047.081-.091.152-.135.219l-.071.119c-.044.072-.084.14-.12.2-.012.019-.024.036-.032.051s-.012.02-.015.032c-.015.027-.027.056-.044.083s-.012.025-.02.04-.019.044-.027.064a.386.386,0,0,0-.028.059c0,.012-.012.027-.015.04s-.012.036-.02.051a.492.492,0,0,1-.012.052c0,.019-.012.036-.015.051v.012c0,.024-.008.044-.012.064a1.113,1.113,0,0,0,.036.449.587.587,0,0,0,.02.088c.019.083.047.174.079.274l.027.084c.032.1.068.215.108.353a48.9,48.9,0,0,1,1.117,5.722l0,.02c.012.084.024.167.039.255.084.553.175,1.134.279,1.737l.047.3c.12.7.25,1.419.4,2.151a.209.209,0,0,1,0,.04.043.043,0,0,1,0,.024.021.021,0,0,1,.007.015c.064.307.132.609.2.907s.139.593.21.883c.049.191.1.385.147.576.025.091.049.187.076.282s.047.187.076.279.056.2.088.306c.019.084.047.167.071.25.032.108.064.216.1.319.012.036.019.068.031.1.037.123.076.242.116.362.063.206.13.414.2.617l.107.321c.052.14.1.282.152.426.063.171.127.343.194.513.083.211.167.426.25.632a.035.035,0,0,0,.008.02c.076.183.147.362.231.541.019.052.043.108.068.162.051.12.107.243.162.363.04.091.079.183.123.274.079.175.159.346.243.517.512,1.062,1.348,2.429,2.318,4.016,3.738,6.109,9.989,16.328,7.349,25.518l0,.02c-.513,1.133-.6,1.607-.258,3.7,0,.04.012.076.019.116.012.083.04.2.072.346.007.039.019.075.031.119s.028.108.04.167c.044.167.1.35.147.544v.008c.032.1.059.208.091.314.091.323.187.656.275.963.024.071.044.139.063.206.052.183.1.355.152.5a.362.362,0,0,1,.015.059l.068.231.06.194,0,.012v.008l.056.194h.02c.127,0,.254,0,.385,0a27.278,27.278,0,0,0,20.165-8.935c.12-.13.243-.266.358-.4a27.227,27.227,0,0,0,1.921-2.475l.219-.321c.488-.732.95-1.5,1.367-2.282.084-.159.167-.322.251-.486.33-.644.64-1.316.918-2l.152-.385c.279-.7.529-1.42.743-2.144l.147-.505c.2-.736.378-1.5.521-2.259.028-.147.052-.291.076-.434a26.635,26.635,0,0,0,.346-3.07c.012-.175.02-.346.024-.525.015-.314.02-.656.02-1.01V102.641A27.047,27.047,0,0,0,244.1,83.386ZM202.769,89.47c-.171.258-.346.517-.521.771-.091.14-.187.275-.282.41l-.008.012,0,0,0,0,0,.008c-.151.215-.306.429-.458.64-.083.12-.167.235-.258.35v0c-.139.186-.277.373-.417.556l-.008.012-.015.017-.027.024c-.084.059-.167.115-.247.174l-.123.088a1.477,1.477,0,0,1-.12.088l0,0c-.079.056-.164.116-.243.175s-.162.119-.242.179a.418.418,0,0,0-.037.027.1.1,0,0,0-.027.028l-.008.007c-.02.024-.039.049-.059.076a.108.108,0,0,0-.02.04.4.4,0,0,0-.027.056l0,0a.223.223,0,0,1-.007.027v.012l-.013.04c-.047.2-.091.394-.135.588s-.091.39-.135.589c-.151.652-.3,1.3-.445,1.952l-.032.16c-.083.37-.167.743-.255,1.12q-.221.985-.453,1.988c-.079.351-.159.7-.243,1.054v0c-.007.027-.012.059-.019.091-.076.321-.152.647-.231.973v0c-.036.155-.076.309-.111.468-.162.677-.33,1.361-.5,2.049-.068.274-.139.549-.211.823a.463.463,0,0,1-.015.068.436.436,0,0,0-.012.052c-.049.178-.091.357-.14.541a1.023,1.023,0,0,0-.027.115c-.02.079-.044.162-.068.247-.02.059-.036.123-.056.186-.047.164-.108.343-.171.53l-.47,1.411-.194.569.194-1.873.02-.2c.047-.47.095-.943.139-1.407.015-.147.032-.294.044-.438.02-.2.036-.4.056-.6v0c.012-.1.024-.206.032-.314,0-.008,0-.015,0-.024.008-.115.02-.226.032-.341.015-.187.032-.375.052-.557,0-.076.012-.147.019-.223s.012-.147.02-.218c.008-.108.02-.215.028-.323s.019-.218.027-.322c.012-.135.024-.266.036-.4,0-.064.012-.127.017-.194,0-.012,0-.024,0-.036l.012-.155c.008-.052.012-.1.015-.152.017-.2.032-.4.049-.6.007-.1.015-.194.024-.29s.015-.186.024-.277.012-.187.02-.279c.015-.187.032-.37.044-.545,0-.019,0-.039,0-.059a.121.121,0,0,1,0-.036l.012-.143c0-.071.012-.151.017-.226v-.02c0-.039,0-.079.008-.119.012-.164.024-.319.031-.47.008-.1.017-.207.02-.3s.012-.179.017-.267c0-.044,0-.088.007-.127l.012-.255c.008-.13.017-.254.024-.37s.012-.23.02-.338c.008-.142.017-.277.024-.405,0-.047.008-.095.012-.139a.125.125,0,0,1,0-.044.741.741,0,0,1,0-.091.121.121,0,0,0,0-.036c0-.013,0-.02,0-.028V95.63c0-.06.012-.12.015-.175s.012-.107.017-.159.007-.1.015-.152.008-.079.015-.119c0-.012,0-.02,0-.028.007-.047.012-.095.02-.139s.012-.091.019-.139.02-.088.028-.132l.012-.068a.421.421,0,0,1,.015-.064c.008-.044.017-.088.028-.13s.02-.088.032-.132l.036-.132c.012-.044.024-.088.039-.135l.012-.036c.012-.044.025-.083.04-.127s.036-.116.056-.175c.015-.039.027-.079.044-.119,0-.008,0-.02.007-.028.028-.071.056-.147.084-.223s.068-.179.1-.27.071-.179.108-.27c.031-.076.063-.159.1-.242s.076-.175.111-.267c.044-.108.092-.223.14-.343.036-.079.068-.162.1-.247.059-.139.115-.274.175-.409l.171-.4.338-.783.5-1.145c.056-.128.111-.255.167-.387.044-.095.084-.191.132-.29s.083-.194.127-.294.1-.223.147-.333.1-.223.147-.339c.3-.676.6-1.387.931-2.166q.18-.43.37-.892c.1-.23.191-.465.29-.711.036-.079.068-.162.1-.247.012-.027.024-.056.036-.088s.02-.044.032-.068c.044-.111.091-.226.143-.341l.107-.25c.036-.084.072-.167.111-.251.076-.167.152-.333.231-.5.087-.187.179-.37.27-.557.012-.02.019-.044.032-.064.031-.071.068-.142.1-.215.088-.174.179-.353.27-.529s.183-.353.274-.529c.056-.107.111-.215.167-.318.028-.047.052-.1.079-.147s.052-.1.079-.143.04-.083.064-.123.044-.088.068-.127c.012-.024.024-.047.036-.068.064-.115.123-.231.187-.346.119-.218.238-.438.358-.66.588-1.081,1.137-2.1,1.6-3.05a2.154,2.154,0,0,1,.1-.191c.012-.02.024-.044.036-.064v0a.33.33,0,0,1,.036-.047c.02-.032.044-.068.068-.1s.052-.068.076-.1.068-.071.1-.108c.02-.019.037-.036.056-.051a.536.536,0,0,1,.056-.044.681.681,0,0,1,.247-.12l.068-.012h.076a.468.468,0,0,1,.079,0,.516.516,0,0,1,.079.012.4.4,0,0,0,.059.015l.008,0,.017,0a.652.652,0,0,1,.075.027l.017.008s.007,0,.015,0l.071.036.02.008.012.008a.5.5,0,0,1,.06.032c.015.012.031.02.047.031s.027.02.047.032a.79.79,0,0,1,.1.068.6.6,0,0,1,.1.084.1.1,0,0,1,.032.032.089.089,0,0,1,.028.027,1.553,1.553,0,0,1,.107.12.3.3,0,0,0,.024.027l0,.008c.007.008.015.02.024.032s.012.015.02.024a.068.068,0,0,0,.015.024.119.119,0,0,1,.02.024c.027.044.056.084.083.132a.585.585,0,0,1,.056.091.135.135,0,0,1,.02.036c.008.012.012.024.02.036.015.032.032.064.051.1.024.047.044.091.068.139l.012.024.017.04a.542.542,0,0,1,.027.064.64.64,0,0,0,.028.068c.044.107.088.226.127.35a1.864,1.864,0,0,1,.071.235c.025.079.044.162.064.25a1.813,1.813,0,0,1,.047.215.039.039,0,0,0,0,.02c.019.075.032.155.044.235s.019.135.031.206c0,.039.013.076.017.115.008.072.015.147.024.223s.012.127.02.194a.125.125,0,0,1,0,.037v.012a1.36,1.36,0,0,0,.008.139.189.189,0,0,0,0,.044c0,.032,0,.068,0,.1.007.183.012.37.007.564v0c0,.079,0,.155,0,.235,0,.056,0,.116-.008.175s-.008.115-.008.174a1.271,1.271,0,0,1-.012.135v.008c0,.059-.007.123-.015.187,0,.032,0,.063-.008.1-.012.119-.024.238-.039.362l-.008.047-.024.04c-.1.171-.2.345-.3.521s-.2.353-.306.529l-.1.179c-.12.206-.243.417-.363.632h0c-.052.091-.1.183-.159.275-.044.075-.088.154-.132.23-.211.366-.421.732-.636,1.1-.068.111-.132.226-.2.338v0l0,0c-.362.632-.736,1.256-1.11,1.884-.088.147-.171.29-.258.43-.132.218-.267.441-.4.659a.2.2,0,0,1-.02.028c-.052.091-.108.179-.159.266l-.1.155a.578.578,0,0,1-.039.06c-.028.051-.06.1-.091.147-.132.218-.267.433-.4.652s-.274.429-.414.644C203.183,88.849,202.976,89.16,202.769,89.47Zm14.1-9.3c-.088.115-.174.231-.262.343-.02.027-.044.056-.068.083s-.044.056-.064.084l-.132.166c-.047.064-.1.128-.147.191v0c-.036.047-.071.091-.107.139-.052.068-.1.132-.147.194l-.008.013c-.226.294-.446.585-.652.867-.052.071-.1.142-.147.21s-.111.152-.164.228c-.039.059-.083.119-.123.178-.075.111-.147.223-.218.331a.55.55,0,0,0-.044.064c-.044.063-.083.13-.123.194s-.079.13-.115.191-.072.123-.108.186l-.032.052v0l-.732.434-.576.338c-.024.017-.047.028-.071.044-.394.235-.78.461-1.162.688-.151.088-.3.179-.445.267-.092.051-.184.107-.275.162l-.6.358c-.2.12-.4.238-.592.355s-.39.235-.585.35-.382.226-.573.341-.375.228-.561.343-.37.226-.553.338-.363.218-.542.33c-.362.219-.711.438-1.058.652-.517.319-1.017.637-1.511.951l-.9.585h0l.187-.287.4-.62c.191-.29.377-.585.568-.882.1-.148.187-.3.279-.442.071-.111.139-.223.206-.333.024-.04.049-.076.072-.116.047-.075.091-.151.139-.222.111-.187.226-.375.343-.561.024-.037.043-.072.068-.111.087-.147.178-.3.27-.449s.179-.3.266-.449c.355-.6.7-1.189,1.042-1.77.083-.142.167-.29.25-.433.052-.091.1-.184.155-.27.071-.12.14-.24.207-.355l0,0c.027-.052.056-.1.083-.147.072-.123.143-.247.211-.366.028-.044.052-.088.076-.127v0l.039-.071c.084-.143.164-.282.247-.421.1-.184.211-.363.311-.542l0,0q.317-.542.62-1.061c.076-.135.155-.267.231-.4l0,0c.159-.275.323-.545.481-.811.044-.076.088-.152.132-.223.032-.052.068-.1.1-.152a.652.652,0,0,1,.044-.063l.095-.143c.047-.071.1-.143.151-.215.025-.036.052-.071.081-.108,0-.007.012-.015.015-.024.032-.047.064-.095.1-.139.059-.079.115-.152.179-.231v0c.223-.287.456-.573.711-.871.382-.445.8-.911,1.249-1.419.311-.346.628-.7.963-1.081q.16-.19.334-.385.4-.454.811-.954c.044-.052.083-.1.13-.155.123-.155.255-.311.387-.473l.155-.191c.059-.079.123-.155.186-.235.147-.187.294-.373.441-.569.056-.071.111-.142.164-.215s.111-.143.162-.215c.032-.039.068-.088.1-.135l.111-.147c.036-.047.072-.1.1-.143.084-.111.167-.218.243-.318.015-.024.036-.047.052-.072a.806.806,0,0,1,.056-.068l.036-.047a9.45,9.45,0,0,1,.819-.931.488.488,0,0,1,.068-.063c.044-.04.083-.079.123-.111.019-.017.039-.032.056-.047.039-.028.075-.056.11-.079a.426.426,0,0,1,.052-.037c.032-.019.064-.039.1-.056a.224.224,0,0,1,.043-.019.129.129,0,0,1,.04-.02l.028-.012.012,0a.174.174,0,0,1,.047-.017.494.494,0,0,1,.059-.015c.012,0,.024,0,.036,0a.577.577,0,0,1,.076,0h.032a.279.279,0,0,1,.039.008l.02.007.012,0,.028.012h.007a.3.3,0,0,1,.04.024l.008.008.024.012a.2.2,0,0,0,.027.024c.008,0,.012.012.02.02a.206.206,0,0,1,.036.031.155.155,0,0,1,.032.04.475.475,0,0,1,.04.047c.019.028.043.056.059.084a1.045,1.045,0,0,1,.056.091l.012.015c.02.032.036.072.056.1l.008.024c.027.068.051.135.075.2a.557.557,0,0,1,.044.111c.02.052.04.108.056.164s.032.088.044.132c.024.068.044.135.064.206s.039.135.056.2v0c.039.135.071.27.1.407a.423.423,0,0,1,.017.075v.008c.008.032.012.059.02.091a.612.612,0,0,0,.015.091c.02.1.036.207.052.311.007.064.015.127.024.186a4.46,4.46,0,0,1,.051.513c.008.083.012.164.017.243v.027c0,.068,0,.132,0,.194,0,.12,0,.235,0,.346,0,.044,0,.084,0,.123a.291.291,0,0,1,0,.064c0,.051,0,.1-.007.151,0,.079-.012.16-.02.24,0,.039-.008.079-.012.115-.008.076-.015.147-.028.215l-.012.083c-.015.123-.036.243-.063.366a.024.024,0,0,1,0,.015c0,.012,0,.02,0,.032-.015.064-.027.127-.044.191s-.027.127-.044.191-.036.14-.056.211l-.047.171a.193.193,0,0,1-.015.044c-.017.059-.037.12-.056.179l-.084.238-.071.179c-.028.079-.059.159-.1.238a.12.12,0,0,1-.012.037l0,0-.047.107c-.032.068-.06.135-.091.207s-.076.151-.116.226-.071.132-.107.2a.421.421,0,0,1-.02.039h0c-.028.052-.06.1-.088.155v0l0,0c-.028.051-.06.107-.092.159a.62.62,0,0,1-.039.064c-.024.036-.047.075-.072.115l-.019.032c-.012.019-.024.044-.036.063h0c-.032.049-.064.1-.095.152-.02.027-.04.059-.06.091h0c-.064.1-.071.111-.079.123-.02.027-.04.059-.059.091,0,.008-.012.015-.017.024-.024.032-.044.064-.068.1-.1.147-.2.29-.3.438-.051.071-.1.147-.155.218l-.13.179-.032.044c-.171.231-.341.461-.517.692C217.244,79.684,217.058,79.926,216.87,80.172Zm7.6,64.06c-.015-.06-.036-.12-.052-.179l-.024-.084c-.012-.036-.02-.071-.032-.1-.095-.326-.194-.652-.3-.975l-.008-.015v0a.265.265,0,0,0-.015-.052l-.084-.25-.012-.032c-.027-.091-.059-.179-.091-.27s-.051-.159-.079-.235l-.071-.2c-.044-.12-.084-.235-.128-.35l0,0c-.088-.234-.175-.465-.267-.7-.059-.159-.123-.318-.186-.477l-.179-.429a.161.161,0,0,0-.017-.036c-.012-.032-.024-.064-.036-.092-.147-.341-.294-.683-.446-1.017s-.306-.669-.461-1c-.051-.111-.1-.223-.159-.33s-.1-.215-.159-.323q-.309-.626-.624-1.228c-.017-.032-.032-.064-.052-.1-.044-.091-.091-.186-.139-.274-.2-.378-.4-.752-.609-1.122-.087-.159-.174-.318-.266-.477s-.164-.3-.247-.438c-.017-.028-.028-.052-.044-.081s-.032-.051-.044-.075c-.044-.076-.088-.152-.132-.223-.019-.04-.044-.079-.068-.12l-.13-.226c-.044-.079-.088-.155-.132-.23l-.2-.346c-.008-.017-.02-.032-.028-.047-.031-.056-.063-.108-.1-.164-.219-.37-.434-.732-.649-1.086s-.414-.676-.608-1c-.032-.051-.064-.1-.091-.147-.079-.123-.152-.247-.228-.365-.059-.1-.119-.2-.174-.29s-.115-.187-.171-.282c-.028-.049-.06-.1-.088-.143l-.008-.012-.024-.036-.37-.613c-.218-.362-.426-.7-.612-1.029-.044-.081-.091-.16-.135-.24-.02-.036-.044-.075-.068-.115-.108-.191-.207-.373-.3-.549-.052-.095-.1-.186-.143-.279-.024-.043-.047-.087-.068-.13-.036-.068-.068-.128-.1-.191-.068-.14-.135-.279-.2-.417-.04-.084-.076-.167-.115-.251-.084-.191-.172-.377-.251-.568-.007-.017-.015-.032-.02-.047-.083-.184-.159-.366-.23-.549-.036-.088-.076-.179-.108-.27-.087-.219-.174-.442-.254-.664-.072-.187-.135-.37-.2-.557-.076-.215-.152-.434-.219-.656-.044-.128-.083-.258-.127-.39-.056-.164-.1-.326-.155-.49l-.147-.5-.044-.147v0l.553.394c.04.028.084.056.123.088s.088.056.132.088c.027.02.059.039.091.059l.032.02.012.008a1.156,1.156,0,0,0,.1.063.584.584,0,0,1,.059.04c.056.032.111.068.167.1l.083.047c.16.1.326.187.5.279.056.032.111.059.167.088s.122.068.186.1.127.064.191.092c.079.039.159.079.243.115a.642.642,0,0,0,.1.047l.012.008c.039.015.075.036.115.051s.079.037.123.056.079.037.123.056l.024.012c.064.028.127.056.194.079.128.056.255.108.39.164.052.02.1.044.159.064.071.031.147.059.223.087.115.044.23.092.35.135.1.037.2.076.306.111.132.049.263.092.4.14.1.036.21.071.318.1.052.015.1.036.155.056s.1.032.155.051c.1.032.206.068.306.1s.2.068.3.107l.083.032.032.012h0c.084.028.167.064.247.1.159.059.311.123.461.191a.358.358,0,0,1,.052.024c.095.044.191.083.286.127s.184.091.275.135c.027.012.056.028.079.04.083.044.167.083.247.127.024.015.047.027.071.04s.047.027.072.039l.226.132.107.059c.079.047.155.091.231.139.039.025.083.052.123.079.155.1.306.2.458.3.063.044.127.091.191.135.166.123.33.251.492.382l.2.167c.056.047.111.1.164.143l.012.012c.015.012.032.027.047.04.047.043.1.083.14.127l0,.008.012.012a.185.185,0,0,1,.032.027c.068.059.135.123.2.187.043.039.083.079.123.123s.083.083.123.13c.087.088.174.179.254.27l.008.008c.088.1.171.191.255.29l.012.012c.007.012.015.02.024.032.047.059.1.12.147.183s.1.128.147.187.1.132.147.194.088.115.127.175l.008.012c.059.083.12.167.171.247.017.024.028.044.044.063.1.143.191.3.282.446.1.171.208.35.3.529a.678.678,0,0,0,.044.064.333.333,0,0,0,.052.063.079.079,0,0,0,.019.017.159.159,0,0,0,.04.032.57.57,0,0,0,.059.039l.036.017.013,0,.007.008.017.007c.007,0,.012,0,.019,0s.017,0,.025.007a.5.5,0,0,0,.075.017.578.578,0,0,0,.343-.059.4.4,0,0,0,.051-.032.365.365,0,0,0,.091-.084l0,0,.012-.012a.074.074,0,0,1,.015-.02.357.357,0,0,0,.056-.095l.012-.025a.345.345,0,0,0,.017-.043.255.255,0,0,0,.015-.049v-.007c0-.017,0-.032.008-.049a.422.422,0,0,0,0-.068.318.318,0,0,0,0-.056v-.024a.041.041,0,0,1,0-.024l0-.012c0-.008,0-.012,0-.015s0-.017-.008-.024l-.012-.044a.49.49,0,0,1-.024-.044l-.008-.02c-.091-.164-.183-.326-.279-.485-.075-.132-.159-.263-.238-.39-.036-.056-.068-.107-.1-.159s-.052-.079-.079-.12c-.04-.056-.079-.111-.115-.166a.842.842,0,0,1-.052-.072c-.04-.059-.083-.119-.127-.174-.076-.108-.155-.211-.235-.311l-.047-.059c0-.008-.013-.012-.017-.02l0,0-.012-.017c-.079-.1-.159-.2-.243-.3a1.039,1.039,0,0,0-.068-.079c-.083-.1-.167-.191-.255-.287-.039-.047-.083-.095-.13-.143s-.088-.091-.132-.135-.1-.1-.147-.151c-.255-.255-.521-.5-.8-.732,0-.008-.012-.012-.017-.017-.13-.111-.266-.218-.406-.326l-.382-.286c-.015-.008-.027-.02-.043-.028a1.173,1.173,0,0,0-.116-.083.113.113,0,0,1-.024-.015c-.064-.044-.127-.088-.194-.132-.044-.028-.088-.059-.135-.088l-.036-.024-.2-.127c-.052-.032-.108-.064-.164-.1s-.1-.064-.154-.091c-.132-.076-.267-.152-.4-.228l-.02-.012c-.036-.019-.076-.039-.111-.059-.1-.047-.2-.1-.3-.155a.671.671,0,0,1-.068-.032l-.012,0c-.167-.079-.334-.159-.505-.235l-.247-.111h0l.151-.226c.184-.282.363-.564.537-.843.263-.421.517-.835.764-1.249.164-.274.326-.549.485-.819s.311-.541.461-.807c.076-.13.147-.262.223-.394.147-.262.29-.525.429-.783s.279-.513.41-.764c.338-.633.649-1.241.938-1.826.06-.119.12-.235.175-.35s.111-.231.167-.341.095-.2.142-.3c.064-.127.123-.25.179-.373.16-.326.307-.644.449-.95.1-.2.187-.4.275-.6.076-.172.151-.334.226-.5a1.266,1.266,0,0,0,.056-.123l0-.007c.017-.032.028-.06.04-.088s.027-.06.039-.088q.066-.155.132-.3v0l.008-.015c.079-.143.159-.287.242-.426s.16-.262.24-.39l.012-.024c.031-.047.059-.095.087-.143.02-.027.037-.056.056-.079l.084-.13a.43.43,0,0,1,.039-.056c.12-.184.24-.358.366-.529.024-.04.051-.076.076-.111s.039-.052.059-.076a.286.286,0,0,1,.039-.052c.013-.02.025-.036.04-.056s.036-.047.056-.075l.123-.16c.039-.047.079-.095.115-.142.115-.143.231-.282.346-.414.155-.179.311-.346.465-.509.079-.084.155-.16.231-.235h0c.079-.084.152-.155.231-.226.039-.037.076-.072.115-.108l.12-.107c.079-.072.154-.14.235-.2s.154-.13.23-.194.155-.123.235-.183h0a2.184,2.184,0,0,1,.231-.171c.076-.056.151-.111.227-.164h0c.076-.052.152-.1.228-.151l.015-.008c.059-.04.12-.079.179-.115a.224.224,0,0,1,.032-.02h0c.076-.047.147-.091.223-.132.039-.024.079-.044.115-.064s.071-.039.108-.059l.218-.111h0v0c.148-.071.287-.135.43-.194.047-.02.095-.04.139-.056a.254.254,0,0,1,.044-.017h0a.169.169,0,0,1,.052-.02c.024-.012.052-.019.076-.031l.071-.024a.3.3,0,0,0,.032-.013c.008,0,.02,0,.027-.007a1.515,1.515,0,0,1,.147-.047.054.054,0,0,1,.028-.008.353.353,0,0,1,.044-.017c.059-.019.119-.036.174-.051s.116-.028.172-.044.123-.028.186-.04c.183-.036.358-.063.525-.079h.015a.3.3,0,0,1,.056,0c.008,0,.017,0,.024,0a2.851,2.851,0,0,1,.454-.017.7.7,0,0,1,.1,0,.844.844,0,0,1,.174.015c.056.008.111.012.164.024a.1.1,0,0,1,.039.008.3.3,0,0,1,.088.024.152.152,0,0,1,.044.012.4.4,0,0,1,.1.027.14.14,0,0,0,.024.008.778.778,0,0,1,.135.052,1.378,1.378,0,0,1,.235.139,1,1,0,0,1,.115.1.408.408,0,0,1,.04.036,1.378,1.378,0,0,1,.139.164.742.742,0,0,1,.064.091l.012.024.007.015a.592.592,0,0,1,.052.088l0,0,0,.007,0,.008.012.024a.939.939,0,0,1,.056.115c0,.012.012.024.015.036.013.028.025.06.037.092.019.051.039.107.059.162a2.649,2.649,0,0,1,.071.27.409.409,0,0,1,.02.079c0,.024.012.047.017.072a.38.38,0,0,0,.015.071l.012.083c.02.108.036.219.047.334.012.091.017.187.02.279,0,.107.008.211.008.322,0,.091,0,.186-.008.286,0,.04,0,.076-.008.115-.007.116-.015.231-.031.346s-.025.219-.044.326a.326.326,0,0,1-.008.059c-.028.164-.056.326-.1.49a2.126,2.126,0,0,1-.047.223l0,.015c-.024.111-.056.223-.088.331a.835.835,0,0,1-.036.135,1.966,1.966,0,0,1-.059.206l-.013.036c-.031.108-.063.211-.1.314a.086.086,0,0,1-.008.028c-.02.068-.044.13-.068.194v0c-.032.1-.068.2-.1.3-.012.031-.024.059-.036.091-.032.083-.064.171-.1.254s-.064.164-.1.247c-.083.211-.171.417-.258.617-.047.115-.1.226-.147.338s-.111.238-.167.355c-.1.222-.211.438-.309.64a.184.184,0,0,0-.017.039c-.02.04-.036.084-.051.123s-.037.084-.052.123l-.036.083c-.056.14-.111.275-.167.41-.036.079-.068.159-.1.243s-.076.174-.116.262c-.007.02-.015.036-.024.056l-.024.059c-.039.088-.075.171-.115.258s-.079.175-.12.263l-.024.047c-.095.211-.186.417-.286.62-.044.1-.088.194-.135.29l-.215.453c-.037.079-.076.159-.111.235-.052.108-.1.215-.159.323-.123.254-.251.512-.375.767-.063.132-.127.258-.191.39-.051.107-.107.218-.159.326l-.227.461c-.139.286-.282.576-.417.867-.056.111-.108.223-.164.334s-.107.226-.159.338c-.107.226-.215.453-.318.688-.052.115-.108.23-.159.35-.211.47-.422.951-.628,1.448-.052.123-.1.25-.152.373l-.154.382c-.049.127-.1.258-.152.39-.024.056-.044.115-.064.171-.047.115-.091.235-.135.358-.031.088-.068.179-.1.267v0a.671.671,0,0,0-.04.1c-.147.409-.294.826-.434,1.26-.036.107-.071.215-.1.326-.047.147-.095.294-.139.446s-.1.3-.14.453l-.036.119c-.032.116-.068.231-.1.346q-.125.448-.25.907l-.012.052c-.044.166-.088.33-.127.5l-.1.382a.362.362,0,0,0-.015.059c0,.024-.012.044-.017.064v0c-.039.171-.079.343-.119.517s-.084.355-.123.532c0,.013,0,.025,0,.04a.04.04,0,0,0,0,.02v.02c-.02.266-.032.532-.044.791-.007.127-.012.255-.02.382l-.012.4c-.007.172-.012.338-.015.505l-.012.525v.052c-.015.954-.008,1.884,0,2.8v.039c0,.689,0,1.372,0,2.056,0,.238,0,.481-.008.724a.526.526,0,0,1,0,.075l-.012.573c0,.04,0,.079,0,.12a.6.6,0,0,1,0,.079c0,.2-.012.406-.02.613,0,.142-.012.286-.019.429,0,.1-.012.2-.02.306,0,.123-.012.247-.024.37-.012.247-.032.5-.06.752-.007.127-.019.25-.036.377s-.024.255-.039.382c-.008.1-.02.191-.032.291l-.012.1c-.028.238-.064.48-.1.723l-.012.079-.059.37c0,.012,0,.028,0,.04-.02.119-.039.238-.063.357-.028.187-.064.378-.1.569-.044.215-.087.434-.135.656l0,.017c-.032.151-.064.3-.1.449a.18.18,0,0,1-.008.027c-.056.258-.123.513-.191.775-.036.143-.071.287-.115.434a.53.53,0,0,1-.02.083c-.031.12-.068.235-.1.355-.039.147-.088.3-.135.453-.064.223-.135.449-.211.676s-.151.458-.23.692l-.417,1.2-.036-1.269c0-.1,0-.207-.013-.314,0-.059,0-.12-.007-.179V149.7a.479.479,0,0,1,0-.083c0-.083-.012-.171-.015-.255,0-.039-.008-.079-.008-.115a.082.082,0,0,0,0-.027v-.012c0-.032,0-.068-.008-.1-.007-.075-.012-.147-.02-.222-.007-.052-.012-.108-.015-.164s-.012-.123-.02-.187c-.007-.1-.02-.206-.036-.309s-.027-.226-.044-.343c-.012-.095-.024-.191-.039-.286-.017-.115-.032-.226-.052-.341v-.013c-.015-.075-.027-.151-.039-.226a.034.034,0,0,1,0-.019l0-.017,0-.008a.187.187,0,0,0,0-.019v-.008c0-.02,0-.04-.008-.056a.189.189,0,0,0-.007-.044c-.012-.071-.024-.147-.04-.223-.008-.044-.015-.087-.024-.127-.044-.219-.088-.441-.135-.66l-.012-.051q-.162-.729-.358-1.456Zm26.218-8.284c0,.319-.008.64-.02.963,0,.164-.012.326-.024.493a25.689,25.689,0,0,1-.326,2.914l-.076.41c-.135.728-.3,1.448-.493,2.139l-.142.49c-.2.684-.442,1.367-.7,2.024l-.152.37c-.254.624-.544,1.26-.867,1.892-.079.152-.155.3-.238.458a24.821,24.821,0,0,1-1.3,2.163l-.211.314a26.213,26.213,0,0,1-1.826,2.35c-.107.123-.218.247-.333.375a25.947,25.947,0,0,1-18.575,8.469h-.044c-.179-.72-.521-2.147-.625-2.807-.27-1.667-.274-1.961.147-2.9l.025-.047c.059-.14.13-.291.215-.458.1-.215.215-.449.338-.72,3.678-7.977,3.651-13.353,3.622-18.563-.008-1.71-.015-3.479.1-5.332A50.454,50.454,0,0,1,233.8,118.5c.788-1.6,1.6-3.253,2.335-5.083a15.138,15.138,0,0,0,1.961-6.5,6.473,6.473,0,0,0-.04-.745,3.769,3.769,0,0,0-1.336-2.811,3.97,3.97,0,0,0-3.22-.445c-2.955.576-5.941,3.149-7.994,6.895a.4.4,0,0,1-.027.056,82.081,82.081,0,0,1-6.227,11.616c-.04-.012-.079-.028-.12-.044-3.972-1.277-6.267-2.811-6.649-4.446-.321-1.546-.553-3.029-.771-4.445a50.131,50.131,0,0,0-1.162-5.914c-.056-.194-.1-.35-.147-.477-.019-.071-.044-.147-.059-.2.036-.064.1-.155.147-.243s.132-.215.219-.362c.488-.835.93-1.571,1.332-2.235A47.271,47.271,0,0,0,215.316,97c.4-.338.831-.695,1.281-1.069,2.294-1.909,4.9-4.068,6.251-6.192a9.759,9.759,0,0,0,.617-1.137c6.283-2.716,7.161-6.148,7.209-8.859v-.028a2.429,2.429,0,0,0-.914-2.147,2.722,2.722,0,0,0-2.581-.088c-1.828.7-3.355,1.348-4.974,2.029-1.078.453-2.191.919-3.48,1.443a.688.688,0,0,0-.108.052c-.441.267-.874.521-1.3.775l.35-.446c.556-.728,1.129-1.471,1.65-2.2v0c.341-.481.664-.954.946-1.424.107-.174.206-.353.3-.532.049-.012.1-.02.148-.028a26.347,26.347,0,0,1,4.139-.333,25.835,25.835,0,0,1,25.836,25.836Z" transform="translate(-191.3 -67.417)" fill="#040505"/>
        </g>
        <path id="Path_199" data-name="Path 199" d="M232.493,89.659a8.307,8.307,0,0,0-4.487,7.5,8.3,8.3,0,0,0-4.489-7.5,8.306,8.306,0,0,0,4.489-7.5A8.308,8.308,0,0,0,232.493,89.659Z" transform="translate(-185.319 -64.68)" fill="#040505"/>
      </g>
    </g>
  </g>
</svg>
