<svg xmlns="http://www.w3.org/2000/svg" width="193.022" height="186.426" viewBox="0 0 193.022 186.426">
  <g id="Group_28" data-name="Group 28" transform="translate(-897.969 -296.322)">
    <g id="Group_27" data-name="Group 27">
      <path id="Path_138" data-name="Path 138" d="M1020.983,431.915c-.172.445-.375.972-.579,1.5l-1.17-.542-1.379,1.046a10.485,10.485,0,0,1-1.173-1.671,14.85,14.85,0,0,1-.638-2.267A135.837,135.837,0,0,1,989.987,448.1c.883.068,1.338.142,1.791.132,9.719-.21,19.44-.364,29.156-.674a25.826,25.826,0,0,0,14.743-5c4.157-3.032,7.361-2.531,10.892,1.235,3.6,3.844,7.352,7.558,10.839,11.5a41.61,41.61,0,0,1,4.8,6.839c1.211,2.109-.219,5.594-2.491,6.508a2.147,2.147,0,0,1-1.741-.646c-2.822-2.844-5.556-5.774-8.354-8.642-.765-.783-1.654-1.443-2.483-2.163a10.77,10.77,0,0,0-9.917-2.579c-8.05,1.721-16.191,3.034-24.213,4.87-6.3,1.442-12.474,3.418-18.708,5.158,2.022,2.475,4,4.909,5.994,7.331,2.128,2.585,2.266,4.976.378,6.937-1.586,1.647-2.47,1.56-4.119-.049-3.569-3.483-7.232-6.869-10.823-10.33a2.121,2.121,0,0,0-2.484-.479c-10.495,3.569-20.961,7.234-31.536,10.55a161,161,0,0,1-15.848,3.777,19.377,19.377,0,0,1-9.62-.542c-4.56-1.393-7.225-5.709-6.889-11.106a15.478,15.478,0,0,1,4.019-9.541c3.405-3.8,6.975-7.45,10.579-11.06,3.247-3.253,6.636-6.365,10.172-9.739-3.022-.712-5.809-1.248-8.524-2.032-7.428-2.145-14.9-4.189-22.21-6.674-5.072-1.723-9.828-4.293-12.744-9.122a18.6,18.6,0,0,1-2.448-5.691c-.905-4.435.9-7.916,4.556-10.5a82.215,82.215,0,0,1,29.075-13.149c17.335-4.033,34.781-7.479,52.438-9.783,2.541-.332,5.106-.478,7.792-.722-.565-.835-1.049-1.493-1.474-2.187a6.4,6.4,0,0,1-.037-7.284q8.918-14.028,17.809-28.074c1.812-2.877,3.511-5.827,5.184-8.787a2.156,2.156,0,0,0,.134-1.746c-2.477-4.827-.43-11.418,3.166-14.45,1.717-1.448,3.634-2.661,5.347-4.115,2.039-1.73,3.993-3.565,5.91-5.432a2.407,2.407,0,0,0,.587-2.849,2.573,2.573,0,0,1,.262-1.941,49.9,49.9,0,0,0,2.365,4.422c1.53,2.308,2.875,2.348,4.738.316,1.2-1.31,2.3-2.6,1.22-4.6a4.288,4.288,0,0,1-.121-2.648c.972,3.949,3.761,6.458,6.708,8.846l-.251.33-4.906-2.855c1.22,5.334,3.4,6.346,7.385,5.677a29.9,29.9,0,0,1,4.588-.4c3.353-.039,5.215,1.2,6.027,4.454a88.814,88.814,0,0,1,1.639,9.392c.568,4.112.99,8.244,1.476,12.388,4.866-2.09,7.65-7.367,7.075-13.3a18.984,18.984,0,0,0-5.449-11.705,13.814,13.814,0,0,0-6.636-3.769c-2.917-.759-5.843-1.53-8.677-2.542-3.229-1.153-4.957-3.683-5.525-7.016-.493-2.9-1.811-4.513-4.064-4.924a6.542,6.542,0,0,0-7.121,2.959c-.293.513-.492,1.079-.886,1.959,1.542-.128,2.816-.2,4.082-.35a29.22,29.22,0,0,1,3.644-.352c-1.145,1.785-3.119,1.489-4.936,2.1.469,1.46.928,2.884,1.4,4.337-1.43.643-1.87-.152-2.045-4.345-.366,0-.739-.008-1.11,0-2.347.053-2.864-.675-2.021-2.852a7.852,7.852,0,0,1,8.252-5.016,6.737,6.737,0,0,1,6.415,6.041c.6,3.636,2.673,5.632,6.04,6.574,1.849.517,3.684,1.119,5.563,1.487,8.121,1.586,12.5,6.973,14.373,14.549,1.97,7.976-.3,13.222-7.2,17.746a1.881,1.881,0,0,0-.871,2.2c.751,5.047,1.474,10.1,2.246,15.144,1.18,7.7,2.356,15.4,3.6,23.092,1.282,7.908,2.7,15.795,3.943,23.71.437,2.8,1.786,4.412,4.567,5.073a40.75,40.75,0,0,1,13.672,5.517,16.578,16.578,0,0,1,2.829,2.936c.1.107-.206.755-.226.75-1.444-.352-2.606,1.08-4.24.4a62.856,62.856,0,0,0-7.258-2.12,9.62,9.62,0,0,0-2.713-.476,2.413,2.413,0,0,1,.681.347,5.82,5.82,0,0,1,.607.865c-.32.141-.651.426-.957.4-5.336-.413-9.935-2.137-12.166-7.5-3.009-7.238-6.163-14.435-8.728-21.833-1.383-3.989-1.619-8.37-2.459-12.557q-1.21-6.033-2.612-12.027c-.72-3.077-1.587-6.119-2.417-9.283-1.091,3.068-1.987,6.085-3.222,8.956-2.73,6.342-5.478,12.685-8.512,18.884-2.133,4.357-2.707,8.989-3.431,13.65-.944,6.084-2.039,12.17-5.237,17.558-1.5,2.526-3.438,4.789-5.121,7.211a2.837,2.837,0,0,0-.46,1.6c.055,1.974.253,3.944.307,5.917a4.614,4.614,0,0,1-.485,1.465Zm-24.454-33.341.369.573c-.83.721-1.63,1.482-2.495,2.157-9.177,7.163-18.593,14.042-27.49,21.536-10.328,8.7-20.275,17.86-30.239,26.983a136.361,136.361,0,0,0-11.313,11.721,19.811,19.811,0,0,0-3.875,7.129c-1.935,6.6,1.74,11.575,8.54,12.234a31.865,31.865,0,0,0,12.39-1.265c10.394-3.157,20.812-6.281,31.04-9.925a384.611,384.611,0,0,1,63.781-16.758,11.505,11.505,0,0,1,9.86,2.364c3.829,3.2,7.461,6.634,11.109,10.042,1.22,1.14,1.882,1.233,2.562-.267a2.883,2.883,0,0,0,.009-2.281,32.126,32.126,0,0,0-3.649-5.444c-2.614-2.96-5.481-5.695-8.206-8.56-1.475-1.551-2.8-3.248-4.324-4.751-2.3-2.277-4.555-2.454-7.294-.748-.559.348-1.106.718-1.643,1.1a21.446,21.446,0,0,1-10.761,4.243c-7.112.548-14.243.9-21.373,1.165-8.716.327-17.462.17-26.155.791a62.081,62.081,0,0,0-31.166,10.532c-1.818,1.243-3.859,2.16-5.8,3.227,4.565-5.086,10.338-8.292,16.492-10.848,7.857-3.264,16.187-4.45,24.591-4.983a21.6,21.6,0,0,0,9.149-2.661,160.83,160.83,0,0,0,24-16.488,1.951,1.951,0,0,0,.867-2.274c-3.266-16.264-11.095-30.17-21.889-42.548a2.161,2.161,0,0,0-1.63-.624,532.889,532.889,0,0,0-61.028,11.279A77.1,77.1,0,0,0,903.253,408.2a8.093,8.093,0,0,0-3.125,9.332,14.959,14.959,0,0,0,6.022,8.408,51.541,51.541,0,0,0,7.96,4.256c9.8,4.171,20.306,5.968,30.522,8.737a1.655,1.655,0,0,0,1.3-.353c4.108-3.642,8.181-7.324,12.377-11.1-3.187-2.172-6.323-4.487-9.634-6.517a93.281,93.281,0,0,0-10.112-5.511,63.059,63.059,0,0,0-10.947-4c-3.662-.9-7.515-1.018-11.284-1.48l-.056-.659a15.322,15.322,0,0,1,3.7-.524A67.148,67.148,0,0,1,929.4,410.2c6.341,1.572,12.058,4.662,17.713,7.849a3.792,3.792,0,0,0,2.1.608c3.978-.486,7.94-1.1,11.908-1.666,3.1-.44,6.2-1.218,9.3-1.181,2.166.025,3.353-1.07,4.8-2.141q9.669-7.145,19.387-14.222A10.176,10.176,0,0,1,996.529,398.574Zm26.165,23.225c1.107-1.622,2.46-3.392,3.586-5.3,3.715-6.282,4.9-13.333,6.022-20.392.794-4.984,1.856-9.813,4.283-14.39a144.894,144.894,0,0,0,10.888-26.605,4.149,4.149,0,0,0,.124-1.9c-.646-3.284-1.4-6.547-2.054-9.828-.771-3.86-1.519-7.729-.851-11.72.552,1.927,1.029,3.871,1.458,5.825,1.847,8.408,3.581,16.843,5.551,25.222,1.329,5.656,3.2,11.19,3.588,17.042.427,6.385,2.431,12.351,4.855,18.2,2.034,4.914,4.12,9.807,6.077,14.752a11.1,11.1,0,0,0,3.742,4.683c2.785-1.271,5.144.127,7.61.119l-.629-.822,1.133-.451-.817-1.022.224-.357,2.548.327a47.359,47.359,0,0,0-6.416-2.091,6.315,6.315,0,0,1-5.066-5.406c-1.456-8.324-2.939-16.643-4.28-24.985-1.219-7.582-1.9-15.27-3.492-22.766-1.607-7.556-2.277-15.183-3.137-22.813-.621-5.505-1.326-11.009-2.268-16.466-.612-3.545-2.035-4.429-5.67-4.273-1.974.085-3.941.315-5.915.4a5.237,5.237,0,0,1-5.19-3.1c-.411-.794-.772-1.613-1.09-2.284l-3.735,2.352c.089,1.729.253,3.481.252,5.234,0,3.746-1.821,6.041-5.477,6.99a11.421,11.421,0,0,1-2.755.454c-3.8.02-6.251,2.014-7.958,5.2-.44.822-.905,1.632-1.381,2.433-3.25,5.469-6.438,10.978-9.778,16.391-4.809,7.794-9.716,15.528-14.614,23.267a5.3,5.3,0,0,0,.181,6.438c.734,1.026,1.5,2.035,2.319,2.994,9.619,11.267,17.48,23.5,21.065,38.208.865-.824,1.333-.624,1.636.409.705,2.4,1.472,4.792,2.213,7.187l.437-.125c-.72-2.55-1.458-5.1-2.146-7.655a7.7,7.7,0,0,1-.1-1.571l.828-.137,2.956,9.566c-.375-4.82-.639-9.624-2.4-14.187-2.215-5.727-4.342-11.489-6.459-17.253a111.82,111.82,0,0,0-11.909-23.95,15.964,15.964,0,0,1-1.155-2.634l.283-.17,1.813,1.583,12.1-16.321c-.274-.313-.532-.594-.777-.887-3.916-4.678-3.02-10.2,2.113-13.451,1.431-.9,2.731-2.019,4.093-3.034.358-.267.726-.521,1.089-.781l.351.32a8.7,8.7,0,0,1-1.23,1.762c-1.36,1.187-2.9,2.175-4.208,3.413-1.084,1.027-2.522,2.177-2.792,3.482-1.236,5.988,3.526,10.814,8.651,9.863a9.194,9.194,0,0,1,2.036.072l.055.5c-.572.271-1.147.78-1.713.77-2.079-.038-4.155-.248-6.365-.4-3.17,8.234-4.889,10.918-11.344,17.538C1012.405,389.767,1016.977,405.929,1022.694,421.8Zm-7.7-88.121c.75-1.237,1.3-2.11,1.818-3a9.98,9.98,0,0,1,8.935-5.486,10.544,10.544,0,0,0,3.054-.6c2.333-.773,3.865-2.291,3.93-4.893.051-2.075.01-4.153.01-6.042l-3.063-2.827c-2,3.45-5.347,5.583-8.522,7.916a24.421,24.421,0,0,0-3.656,3.051A11.276,11.276,0,0,0,1015,333.678Zm-44.632,83.861-.062-.3-19.767,2.8,9.1,6.488Zm28.5,60.827c2-1.438,2.129-3.159.28-5.4-1.253-1.518-2.433-3.1-3.727-4.58a26.251,26.251,0,0,0-2.712-2.6,1.522,1.522,0,0,0-1.176-.349c-1.743.478-3.458,1.059-4.929,1.524Zm12.692-116.27-.342-.247-7.749,10.592.383.277C1007.3,369.81,1009.484,365.995,1011.554,362.1Z" fill="#191718"/>
      <path id="Path_139" data-name="Path 139" d="M1060.072,322.038c.527.543,1.3,1,1.533,1.645a26.652,26.652,0,0,1,1.2,4.718c.3,1.858.4,3.75.619,6.026-.731-1.142-1.706-2.018-1.852-3.015-.445-3.044-.039-6.239-2.283-8.916Z" fill="#191718"/>
      <path id="Path_140" data-name="Path 140" d="M1025.905,348.385c-.077,1.328-.193,2.654-.223,3.983a8.058,8.058,0,0,0,9.829,7.846c3.264-.817,5.812-4.828,5.611-8.769-.059-1.138-.009-2.28-.009-3.6,2.507,2.712,1.469,8.7-1.881,11.962-3.3,3.212-8.853,2.81-12.589-.91C1023.717,355.988,1023.146,350.781,1025.905,348.385Z" fill="#191718"/>
      <path id="Path_141" data-name="Path 141" d="M1017.2,346.31a12.216,12.216,0,0,1-2.331,1.356c-.2.062-1.008-.913-.931-1.038a4.494,4.494,0,0,1,1.526-1.587C1015.67,344.929,1016.336,345.656,1017.2,346.31Z" fill="#191718"/>
      <path id="Path_142" data-name="Path 142" d="M1035.246,351.526a7.258,7.258,0,0,1-1.641,1.285c-.17.065-.984-.773-.909-1a2.541,2.541,0,0,1,1.137-1.311C1034.013,350.4,1034.586,351.029,1035.246,351.526Z" fill="#191718"/>
      <path id="Path_143" data-name="Path 143" d="M1023.965,323.723c.014-4.5,4.5-5.706,5.985-9.06l.56.2c0,.372.139.828-.025,1.1a21.061,21.061,0,0,1-2.09,3.1C1027.007,320.652,1025.488,322.133,1023.965,323.723Z" fill="#191718"/>
    </g>
  </g>
</svg>
